<svg width="1200" height="520" viewBox="0 0 1200 520" fill="none" xmlns="http://www.w3.org/2000/svg">
  <defs><style>.mono{font-family:'JetBrains Mono','Courier New',monospace}.title{font-family:'Inter','Arial',sans-serif;font-weight:800;letter-spacing:2px}.card{fill:#020617;stroke:#1E3A8A;stroke-width:1.4}.card:hover{stroke:#38BDF8}</style></defs>
  <rect width="1200" height="520" fill="#000"/>
  <text x="600" y="58" text-anchor="middle" fill="#E2E8F0" font-size="32" class="title">RESEARCH OPERATIONS</text>
  <text x="600" y="91" text-anchor="middle" fill="#38BDF8" font-size="15" class="mono">modules loaded from ~/cyberops/research</text>
  <g transform="translate(90 140)"><rect class="card" width="310" height="135" rx="18"/><text x="28" y="42" fill="#38BDF8" font-size="18" class="title">OSINT</text><text x="28" y="78" fill="#CBD5E1" font-size="14" class="mono">Public intelligence</text><text x="28" y="104" fill="#64748B" font-size="13" class="mono">Recon workflows • Data analysis</text></g>
  <g transform="translate(445 140)"><rect class="card" width="310" height="135" rx="18"/><text x="28" y="42" fill="#38BDF8" font-size="18" class="title">THREAT INTEL</text><text x="28" y="78" fill="#CBD5E1" font-size="14" class="mono">IOC enrichment</text><text x="28" y="104" fill="#64748B" font-size="13" class="mono">Tracking • Context • Reports</text></g>
  <g transform="translate(800 140)"><rect class="card" width="310" height="135" rx="18"/><text x="28" y="42" fill="#38BDF8" font-size="18" class="title">WEB SECURITY</text><text x="28" y="78" fill="#CBD5E1" font-size="14" class="mono">Exposure analysis</text><text x="28" y="104" fill="#64748B" font-size="13" class="mono">Headers • DNS • Misconfigurations</text></g>
  <g transform="translate(90 315)"><rect class="card" width="310" height="135" rx="18"/><text x="28" y="42" fill="#38BDF8" font-size="18" class="title">LINUX</text><text x="28" y="78" fill="#CBD5E1" font-size="14" class="mono">Automation and hardening</text><text x="28" y="104" fill="#64748B" font-size="13" class="mono">Bash • Python • CLI tooling</text></g>
  <g transform="translate(445 315)"><rect class="card" width="310" height="135" rx="18"/><text x="28" y="42" fill="#38BDF8" font-size="18" class="title">DEFENSE</text><text x="28" y="78" fill="#CBD5E1" font-size="14" class="mono">Detection engineering</text><text x="28" y="104" fill="#64748B" font-size="13" class="mono">Logs • Alerts • Reporting</text></g>
  <g transform="translate(800 315)"><rect class="card" width="310" height="135" rx="18"/><text x="28" y="42" fill="#38BDF8" font-size="18" class="title">OPEN SOURCE</text><text x="28" y="78" fill="#CBD5E1" font-size="14" class="mono">Security tools</text><text x="28" y="104" fill="#64748B" font-size="13" class="mono">Ethical • Documented • Useful</text></g>
</svg>
